<?xml version="1.0" standalone="no"?>
<!DOCTYPE svg PUBLIC "-//W3C//DTD SVG 20010904//EN" "http://www.w3.org/TR/2001/REC-SVG-20010904/DTD/svg10.dtd">
<svg version="1.0" xmlns="http://www.w3.org/2000/svg" width="575.000000pt" height="434.000000pt"
	viewBox="0 0 575.000000 434.000000" preserveAspectRatio="xMidYMid meet">

	<g transform="translate(-100.000000,350.000000) scale(0.150000,-0.100000)" fill="#16784f" stroke="none">
		<path d="M2590 3701 c-110 -24 -206 -61 -297 -114 l-72 -42 -81 -245 c-44
-135 -80 -250 -80 -257 0 -7 16 -15 36 -19 48 -9 54 -2 160 185 96 168 106
178 213 211 199 62 438 38 588 -59 153 -99 224 -241 224 -446 0 -122 -17 -191
-76 -311 -52 -107 -122 -206 -254 -364 -53 -63 -114 -139 -135 -167 -41 -57
-55 -66 -49 -30 4 24 68 719 79 860 l6 87 -38 0 c-23 0 -99 -23 -187 -57
l-148 -57 6 -41 c3 -22 14 -161 25 -310 11 -148 31 -425 45 -615 40 -546 34
-495 67 -527 l29 -28 34 40 c42 49 42 46 55 228 6 82 16 163 24 180 26 63 138
186 417 457 155 151 309 308 341 349 115 143 152 250 151 431 0 178 -46 297
-160 421 -97 104 -235 184 -398 230 -114 32 -401 37 -525 10z" />
		<path d="M2555 1032 c-98 -58 -142 -138 -132 -240 23 -264 383 -325 490 -83
40 91 17 213 -54 281 -53 50 -87 63 -174 67 -74 4 -84 2 -130 -25z" />
	</g>
</svg>