<svg id="Layer_1" data-name="Layer 1" xmlns="http://www.w3.org/2000/svg" viewBox="0 0 340.16 113.39" fill="#16784f">
	<defs>
		<style>
			.cls-1 {
				font-size: 71.99px;
				font-family: Georgia;
			}

			.cls-2 {
				letter-spacing: -0.03em;
			}

			.cls-3 {
				font-size: 68.16px;
			}
		</style>
	</defs>
	<title>IQsozluk</title>
	<g>
		<path
			d="M31.06,30.16c-.92,10.31-1.81,20.28-2.73,30.52C30.54,58,32.52,55.45,34.6,53a44.59,44.59,0,0,0,7.79-11.78C45,35,45.08,28.79,41.28,22.91a13.72,13.72,0,0,0-7.66-5.6A23.12,23.12,0,0,0,16.87,18,7.31,7.31,0,0,0,14,20.61c-1.7,2.6-3.13,5.38-4.75,8a2.45,2.45,0,0,1-1.51,1.12C6,29.93,5.4,29.11,6,27.46,7.42,23,8.82,18.52,10.47,14.14A5.61,5.61,0,0,1,13,11.67c10.17-5.5,20.69-6.08,31.25-1.45,6.78,3,11.23,8.2,12.36,15.71.86,5.67.06,11.21-3.8,15.6C48.16,46.84,43,51.72,38.05,56.8c-2.69,2.76-5.38,5.52-8,8.32-2.2,2.32-2.49,5.27-2.62,8.27A22.29,22.29,0,0,1,27,78.51a8.72,8.72,0,0,1-2.27,3.34c-.49.51-2.26-1.18-2.38-2.37-.22-2.17-.38-4.36-.54-6.54-.66-9.25-1.29-18.5-2-27.75-.23-3.22-.55-6.43-.84-9.65-.09-1,0-1.66,1.23-2,2.52-.78,4.92-1.94,7.42-2.81A19.72,19.72,0,0,1,31.06,30.16Z" />
		<path
			d="M17,99.13A8.11,8.11,0,0,1,25.25,91a8.31,8.31,0,0,1,8.33,8.16,8.1,8.1,0,0,1-8.3,8.32A8.07,8.07,0,0,1,17,99.13Z" />
	</g>
	<text class="cls-1" transform="translate(71.98 74.53) " fill="#16784f">
		<tspan class="cls-2">I</tspan>
		<tspan class="cls-3" x="26.25" y="0">qSözlük</tspan>
	</text>
	<g>
		<path d="M173.83,79.62,165.9,97.51H164l-7.93-17.89h2L165,95.16l6.9-15.54Z" />
		<path
			d="M185.15,89.18v8.33h-1.74V95.42a5,5,0,0,1-4.63,2.22c-3,0-4.9-1.59-4.9-3.91,0-2.07,1.33-3.81,5.19-3.81h4.26V89.1c0-2.3-1.3-3.55-3.81-3.55a6.86,6.86,0,0,0-4.47,1.58l-.82-1.35A8.55,8.55,0,0,1,179.7,84C183.18,84,185.15,85.7,185.15,89.18Zm-1.82,4.29v-2.2h-4.21c-2.61,0-3.45,1-3.45,2.41,0,1.56,1.25,2.53,3.4,2.53A4.29,4.29,0,0,0,183.33,93.47Z" />
		<path
			d="M188.21,96l.82-1.43a8.16,8.16,0,0,0,4.78,1.5c2.56,0,3.61-.87,3.61-2.19,0-3.51-8.72-.75-8.72-6.06,0-2.2,1.89-3.84,5.32-3.84a9,9,0,0,1,4.75,1.26L198,86.67a7,7,0,0,0-4-1.15c-2.43,0-3.5,1-3.5,2.23,0,3.63,8.71.89,8.71,6.06,0,2.32-2,3.83-5.55,3.83A9,9,0,0,1,188.21,96Z" />
		<path
			d="M212.73,89.18v8.33H211V95.42a5,5,0,0,1-4.63,2.22c-3,0-4.91-1.59-4.91-3.91,0-2.07,1.33-3.81,5.19-3.81h4.27V89.1c0-2.3-1.3-3.55-3.81-3.55a6.84,6.84,0,0,0-4.47,1.58l-.82-1.35A8.55,8.55,0,0,1,207.28,84C210.76,84,212.73,85.7,212.73,89.18Zm-1.82,4.29v-2.2h-4.22c-2.6,0-3.45,1-3.45,2.41,0,1.56,1.26,2.53,3.4,2.53A4.29,4.29,0,0,0,210.91,93.47Z" />
		<path
			d="M224.74,96.69a4.33,4.33,0,0,1-2.84,1A3.56,3.56,0,0,1,218,93.73V85.6h-2.41V84.07H218V81.13h1.81v2.94h4.09V85.6h-4.09v8a2.15,2.15,0,0,0,2.33,2.45,3,3,0,0,0,2-.69Z" />
		<path
			d="M234.76,96.69a4.33,4.33,0,0,1-2.84,1A3.56,3.56,0,0,1,228,93.73V85.6h-2.4V84.07H228V81.13h1.82v2.94h4.09V85.6H229.8v8a2.15,2.15,0,0,0,2.33,2.45,3,3,0,0,0,2-.69Z" />
		<path
			d="M248.2,89.18v8.33h-1.74V95.42a5,5,0,0,1-4.62,2.22c-3,0-4.91-1.59-4.91-3.91,0-2.07,1.33-3.81,5.19-3.81h4.27V89.1c0-2.3-1.31-3.55-3.81-3.55a6.82,6.82,0,0,0-4.47,1.58l-.82-1.35A8.53,8.53,0,0,1,242.76,84C246.23,84,248.2,85.7,248.2,89.18Zm-1.81,4.29v-2.2h-4.22c-2.61,0-3.45,1-3.45,2.41,0,1.56,1.25,2.53,3.4,2.53A4.31,4.31,0,0,0,246.39,93.47Z" />
		<path
			d="M265.5,89.71v7.8h-1.81V89.89c0-2.83-1.48-4.29-4-4.29-2.89,0-4.7,1.79-4.7,4.86v7.05h-1.82V84.07h1.74v2.48A5.65,5.65,0,0,1,260,84C263.26,84,265.5,85.86,265.5,89.71Z" />
		<path d="M279.41,81.26v7h9.25v1.64h-9.25v7.59h-1.89V79.62h12.27v1.64Z" />
		<path
			d="M292.65,79.82A1.3,1.3,0,0,1,294,78.55a1.28,1.28,0,0,1,1.32,1.25,1.33,1.33,0,0,1-2.65,0Zm.41,4.25h1.81V97.51h-1.81Z" />
		<path
			d="M306.7,84v1.77c-.15,0-.3,0-.43,0-2.81,0-4.52,1.79-4.52,5v6.85h-1.82V84.07h1.74V86.7C302.51,84.91,304.22,84,306.7,84Z" />
		<path
			d="M320.1,89.18v8.33h-1.74V95.42a5,5,0,0,1-4.63,2.22c-3,0-4.9-1.59-4.9-3.91,0-2.07,1.32-3.81,5.18-3.81h4.27V89.1c0-2.3-1.3-3.55-3.81-3.55A6.86,6.86,0,0,0,310,87.13l-.82-1.35A8.55,8.55,0,0,1,314.65,84C318.13,84,320.1,85.7,320.1,89.18Zm-1.82,4.29v-2.2h-4.21c-2.61,0-3.46,1-3.46,2.41,0,1.56,1.26,2.53,3.4,2.53A4.29,4.29,0,0,0,318.28,93.47Z" />
		<path
			d="M331.8,84v1.77c-.15,0-.3,0-.43,0-2.81,0-4.53,1.79-4.53,5v6.85H325V84.07h1.74V86.7C327.61,84.91,329.32,84,331.8,84Z" />
	</g>
</svg>